<?xml version="1.0" ?><svg enable-background="new 0 0 24 24" id="Layer_1" version="1.1" viewBox="0 0 24 24" xml:space="preserve" xmlns="http://www.w3.org/2000/svg" xmlns:xlink="http://www.w3.org/1999/xlink"><path d="M12,2C6.4858398,2,2,6.4858398,2,12s4.4858398,10,10,10s10-4.4858398,10-10S17.5141602,2,12,2z M12,21 c-4.9624023,0-9-4.0375977-9-9s4.0375977-9,9-9s9,4.0375977,9,9S16.9624023,21,12,21z"/><polygon points="15.1821289,8.1108398 12,11.2929688 8.8178711,8.1108398 8.1108398,8.8178711 11.2929688,12 8.1108398,15.1821289 8.8178711,15.8891602 12,12.7070312 15.1821289,15.8891602 15.8891602,15.1821289 12.7070312,12 15.8891602,8.8178711 "/></svg>